<svg width="25" height="24" viewBox="0 0 25 24" fill="none" xmlns="http://www.w3.org/2000/svg">
<path fill-rule="evenodd" clip-rule="evenodd" d="M18.8376 4.29092C19.4019 3.73594 20.1625 3.4264 20.9539 3.42971C21.7453 3.43303 22.5034 3.74893 23.0629 4.30862C23.6225 4.8683 23.9382 5.62642 23.9413 6.41783C23.9445 7.20924 23.6348 7.96983 23.0796 8.53392L18.6246 12.9889C18.3122 13.3017 17.905 13.5021 17.4666 13.5589L15.8426 13.7679C15.5392 13.8072 15.2307 13.7763 14.9411 13.6776C14.6514 13.5789 14.3883 13.415 14.1719 13.1986C13.9555 12.9823 13.7917 12.7191 13.693 12.4295C13.5943 12.1398 13.5634 11.8314 13.6026 11.5279L13.8126 9.90492C13.8692 9.46618 14.0697 9.05858 14.3826 8.74592L18.8376 4.29092ZM21.6656 5.70492C21.4781 5.51744 21.2238 5.41213 20.9586 5.41213C20.6935 5.41213 20.4392 5.51744 20.2516 5.70492L15.7956 10.1609L15.5856 11.7839L17.2096 11.5739L21.6656 7.11992C21.7586 7.02704 21.8324 6.91675 21.8827 6.79536C21.933 6.67396 21.9589 6.54383 21.9589 6.41242C21.9589 6.281 21.933 6.15087 21.8827 6.02948C21.8324 5.90808 21.7586 5.79779 21.6656 5.70492ZM5.26564 5.58492C4.57464 5.58492 4.01564 6.14392 4.01564 6.83492V9.35692L5.60064 7.94792C6.21601 7.41191 7.01807 7.14045 7.83249 7.19254C8.6469 7.24464 9.40784 7.61608 9.9499 8.22613C10.492 8.83617 10.7713 9.63552 10.7273 10.4504C10.6832 11.2653 10.3193 12.0299 9.71464 12.5779L8.81164 13.3809C8.70457 13.4747 8.61751 13.5891 8.55565 13.7173C8.49379 13.8455 8.45841 13.9848 8.45162 14.127C8.44483 14.2692 8.46677 14.4113 8.51613 14.5448C8.56549 14.6783 8.64126 14.8005 8.7389 14.904C8.83654 15.0076 8.95406 15.0904 9.08443 15.1475C9.21481 15.2046 9.35535 15.2349 9.49768 15.2365C9.64001 15.238 9.78119 15.2109 9.9128 15.1567C10.0444 15.1025 10.1637 15.0223 10.2636 14.9209L11.3076 13.8769C11.4952 13.6893 11.7495 13.5838 12.0148 13.5837C12.2801 13.5836 12.5345 13.6889 12.7221 13.8764C12.9098 14.0639 13.0153 14.3183 13.0153 14.5836C13.0154 14.8488 12.9102 15.1033 12.7226 15.2909L11.6776 16.3349C11.3885 16.6256 11.0439 16.8551 10.6644 17.01C10.2848 17.1648 9.87794 17.2418 9.46802 17.2363C9.05811 17.2308 8.65348 17.143 8.27818 16.978C7.90287 16.8131 7.56455 16.5744 7.28331 16.2761C7.00207 15.9778 6.78365 15.6261 6.64104 15.2418C6.49842 14.8574 6.4345 14.4483 6.4531 14.0388C6.47169 13.6293 6.57241 13.2277 6.74927 12.8578C6.92614 12.488 7.17553 12.1575 7.48264 11.8859L8.38664 11.0829C8.60412 10.8896 8.73588 10.6178 8.75295 10.3273C8.77002 10.0368 8.67099 9.75139 8.47764 9.53392C8.2843 9.31644 8.01248 9.18467 7.72199 9.16761C7.4315 9.15054 7.14612 9.24957 6.92864 9.44292L4.01464 12.0329V17.3339C4.01464 18.0239 4.57464 18.5839 5.26464 18.5839H18.7646C19.4546 18.5839 20.0146 18.0239 20.0146 17.3339V14.2099C20.0146 13.9447 20.12 13.6903 20.3075 13.5028C20.4951 13.3153 20.7494 13.2099 21.0146 13.2099C21.2799 13.2099 21.5342 13.3153 21.7217 13.5028C21.9093 13.6903 22.0146 13.9447 22.0146 14.2099V17.3349C22.0146 18.1969 21.6722 19.0235 21.0627 19.633C20.4532 20.2425 19.6266 20.5849 18.7646 20.5849H5.26564C4.40369 20.5849 3.57704 20.2425 2.96755 19.633C2.35805 19.0235 2.01564 18.1969 2.01564 17.3349V11.5899C2.01562 11.5866 2.01562 11.5832 2.01564 11.5799V6.83492C2.01564 5.97296 2.35805 5.14631 2.96755 4.53682C3.57704 3.92733 4.40369 3.58492 5.26564 3.58492H14.2886C14.5539 3.58492 14.8082 3.69027 14.9957 3.87781C15.1833 4.06535 15.2886 4.3197 15.2886 4.58492C15.2886 4.85013 15.1833 5.10449 14.9957 5.29202C14.8082 5.47956 14.5539 5.58492 14.2886 5.58492H5.26564Z" fill="#FD71AF"/>
</svg>
