<svg width="25" height="24" viewBox="0 0 25 24" fill="none" xmlns="http://www.w3.org/2000/svg">
<g clip-path="url(#clip0_1_5709)">
<path fill-rule="evenodd" clip-rule="evenodd" d="M5.70312 3C5.17269 3 4.66398 3.21071 4.28891 3.58579C3.91384 3.96086 3.70313 4.46957 3.70312 5V11C3.70313 11.5304 3.91384 12.0391 4.28891 12.4142C4.66398 12.7893 5.17269 13 5.70312 13H11.7031C12.2336 13 12.7423 12.7893 13.1173 12.4142C13.4924 12.0391 13.7031 11.5304 13.7031 11V5C13.7031 4.46957 13.4924 3.96086 13.1173 3.58579C12.7423 3.21071 12.2336 3 11.7031 3H5.70312ZM5.70312 11V5H11.7031V11H5.70312ZM5.70312 14C5.17269 14 4.66398 14.2107 4.28891 14.5858C3.91384 14.9609 3.70313 15.4696 3.70312 16V19C3.70313 19.5304 3.91384 20.0391 4.28891 20.4142C4.66398 20.7893 5.17269 21 5.70312 21H8.70312C9.23356 21 9.74227 20.7893 10.1173 20.4142C10.4924 20.0391 10.7031 19.5304 10.7031 19V16C10.7031 15.4696 10.4924 14.9609 10.1173 14.5858C9.74227 14.2107 9.23356 14 8.70312 14H5.70312ZM5.70312 19V16H8.70312V19H5.70312ZM13.7031 14C13.1727 14 12.664 14.2107 12.2889 14.5858C11.9138 14.9609 11.7031 15.4696 11.7031 16V19C11.7031 19.5304 11.9138 20.0391 12.2889 20.4142C12.664 20.7893 13.1727 21 13.7031 21H19.7031C20.2336 21 20.7423 20.7893 21.1173 20.4142C21.4924 20.0391 21.7031 19.5304 21.7031 19V16C21.7031 15.4696 21.4924 14.9609 21.1173 14.5858C20.7423 14.2107 20.2336 14 19.7031 14H13.7031ZM13.7031 19V16H19.7031V19H13.7031ZM16.7031 3C16.1727 3 15.664 3.21071 15.2889 3.58579C14.9138 3.96086 14.7031 4.46957 14.7031 5V11C14.7031 11.5304 14.9138 12.0391 15.2889 12.4142C15.664 12.7893 16.1727 13 16.7031 13H19.7031C20.2336 13 20.7423 12.7893 21.1173 12.4142C21.4924 12.0391 21.7031 11.5304 21.7031 11V5C21.7031 4.46957 21.4924 3.96086 21.1173 3.58579C20.7423 3.21071 20.2336 3 19.7031 3H16.7031ZM16.7031 11V5H19.7031V11H16.7031Z" fill="#49CCF9"/>
</g>
<defs>
<clipPath id="clip0_1_5709">
<rect width="24" height="24" fill="white" transform="translate(0.703125)"/>
</clipPath>
</defs>
</svg>
