<svg width="19" height="18" viewBox="0 0 19 18" fill="none" xmlns="http://www.w3.org/2000/svg">
<g clip-path="url(#clip0_1_5698)">
<path fill-rule="evenodd" clip-rule="evenodd" d="M11.5619 0H4.04688C2.98601 0 1.96859 0.421427 1.21845 1.17157C0.468302 1.92172 0.046875 2.93913 0.046875 4L0.046875 14C0.046875 15.0609 0.468302 16.0783 1.21845 16.8284C1.96859 17.5786 2.98601 18 4.04688 18H14.0469C15.1077 18 16.1252 17.5786 16.8753 16.8284C17.6254 16.0783 18.0469 15.0609 18.0469 14V10.485L16.0469 12.485V14C16.0469 14.5304 15.8362 15.0391 15.4611 15.4142C15.086 15.7893 14.5773 16 14.0469 16H4.04688C3.51644 16 3.00773 15.7893 2.63266 15.4142C2.25759 15.0391 2.04688 14.5304 2.04688 14V4C2.04688 3.46957 2.25759 2.96086 2.63266 2.58579C3.00773 2.21071 3.51644 2 4.04688 2H9.56188L11.5619 0Z" fill="#7B68EE"/>
<path fill-rule="evenodd" clip-rule="evenodd" d="M17.7572 2.29279C17.9447 2.48031 18.05 2.73462 18.05 2.99979C18.05 3.26495 17.9447 3.51926 17.7572 3.70679L9.75721 11.7068C9.56968 11.8943 9.31538 11.9996 9.05021 11.9996C8.78505 11.9996 8.53074 11.8943 8.34321 11.7068L4.34321 7.70679C4.16105 7.51818 4.06026 7.26558 4.06254 7.00339C4.06482 6.74119 4.16999 6.49038 4.35539 6.30497C4.5408 6.11956 4.79161 6.01439 5.05381 6.01211C5.31601 6.00983 5.56861 6.11063 5.75721 6.29279L9.05021 9.58579L16.3432 2.29279C16.5307 2.10532 16.785 2 17.0502 2C17.3154 2 17.5697 2.10532 17.7572 2.29279Z" fill="#7B68EE"/>
</g>
<defs>
<clipPath id="clip0_1_5698">
<rect width="18" height="18" fill="white" transform="translate(0.046875)"/>
</clipPath>
</defs>
</svg>
