<svg width="25" height="24" viewBox="0 0 25 24" fill="none" xmlns="http://www.w3.org/2000/svg">
<g clip-path="url(#clip0_1_5724)">
<path fill-rule="evenodd" clip-rule="evenodd" d="M6.67188 5C6.67188 4.73478 6.77723 4.48043 6.96477 4.29289C7.1523 4.10536 7.40666 4 7.67188 4H13.8439C14.1091 4.00006 14.3634 4.10545 14.5509 4.293L18.3789 8.121C18.5664 8.30849 18.6718 8.56281 18.6719 8.828V19C18.6719 19.2652 18.5665 19.5196 18.379 19.7071C18.1914 19.8946 17.9371 20 17.6719 20H7.67188C7.40666 20 7.1523 19.8946 6.96477 19.7071C6.77723 19.5196 6.67188 19.2652 6.67188 19V5ZM7.67188 2C6.87623 2 6.11316 2.31607 5.55055 2.87868C4.98795 3.44129 4.67188 4.20435 4.67188 5V19C4.67188 19.7956 4.98795 20.5587 5.55055 21.1213C6.11316 21.6839 6.87623 22 7.67188 22H17.6719C18.4675 22 19.2306 21.6839 19.7932 21.1213C20.3558 20.5587 20.6719 19.7956 20.6719 19V8.828C20.6714 8.03276 20.3553 7.27023 19.7929 6.708L15.9649 2.878C15.4022 2.31572 14.6393 1.9999 13.8439 2H7.67188ZM9.67188 8C9.40666 8 9.1523 8.10536 8.96477 8.29289C8.77723 8.48043 8.67188 8.73478 8.67188 9C8.67188 9.26522 8.77723 9.51957 8.96477 9.70711C9.1523 9.89464 9.40666 10 9.67188 10H12.6719C12.9371 10 13.1914 9.89464 13.379 9.70711C13.5665 9.51957 13.6719 9.26522 13.6719 9C13.6719 8.73478 13.5665 8.48043 13.379 8.29289C13.1914 8.10536 12.9371 8 12.6719 8H9.67188ZM9.67188 12C9.40666 12 9.1523 12.1054 8.96477 12.2929C8.77723 12.4804 8.67188 12.7348 8.67188 13C8.67188 13.2652 8.77723 13.5196 8.96477 13.7071C9.1523 13.8946 9.40666 14 9.67188 14H15.6719C15.9371 14 16.1914 13.8946 16.379 13.7071C16.5665 13.5196 16.6719 13.2652 16.6719 13C16.6719 12.7348 16.5665 12.4804 16.379 12.2929C16.1914 12.1054 15.9371 12 15.6719 12H9.67188ZM8.67188 17C8.67188 16.7348 8.77723 16.4804 8.96477 16.2929C9.1523 16.1054 9.40666 16 9.67188 16H15.6719C15.9371 16 16.1914 16.1054 16.379 16.2929C16.5665 16.4804 16.6719 16.7348 16.6719 17C16.6719 17.2652 16.5665 17.5196 16.379 17.7071C16.1914 17.8946 15.9371 18 15.6719 18H9.67188C9.40666 18 9.1523 17.8946 8.96477 17.7071C8.77723 17.5196 8.67188 17.2652 8.67188 17Z" fill="#5577FF"/>
</g>
<defs>
<clipPath id="clip0_1_5724">
<rect width="24" height="24" fill="white" transform="translate(0.671875)"/>
</clipPath>
</defs>
</svg>
