<svg width="25" height="24" viewBox="0 0 25 24" fill="none" xmlns="http://www.w3.org/2000/svg">
<g clip-path="url(#clip0_1_5714)">
<path fill-rule="evenodd" clip-rule="evenodd" d="M11.2732 3.02953C11.4007 3.06133 11.5207 3.11794 11.6263 3.19613C11.7318 3.27431 11.821 3.37253 11.8886 3.48518C11.9562 3.59783 12.0009 3.72269 12.0203 3.85264C12.0396 3.98259 12.0331 4.11508 12.0013 4.24253L11.1873 7.49953H16.1252L17.0613 3.75753C17.0912 3.62819 17.1467 3.50613 17.2243 3.39844C17.302 3.29076 17.4003 3.19963 17.5136 3.13035C17.6268 3.06107 17.7528 3.01503 17.884 2.99493C18.0152 2.97483 18.1491 2.98106 18.2779 3.01326C18.4067 3.04546 18.5278 3.10298 18.6342 3.18248C18.7405 3.26197 18.8299 3.36184 18.8973 3.47627C18.9646 3.5907 19.0085 3.71738 19.0263 3.84894C19.0442 3.9805 19.0357 4.1143 19.0012 4.24253L18.1873 7.49953H21.5312C21.7965 7.49953 22.0508 7.60488 22.2384 7.79242C22.4259 7.97996 22.5312 8.23431 22.5312 8.49953C22.5312 8.76474 22.4259 9.0191 22.2384 9.20663C22.0508 9.39417 21.7965 9.49953 21.5312 9.49953H17.6873L16.4373 14.4995H19.5312C19.7965 14.4995 20.0508 14.6049 20.2384 14.7924C20.4259 14.98 20.5312 15.2343 20.5312 15.4995C20.5312 15.7647 20.4259 16.0191 20.2384 16.2066C20.0508 16.3942 19.7965 16.4995 19.5312 16.4995H15.9373L15.0013 20.2425C14.9713 20.3719 14.9158 20.4939 14.8382 20.6016C14.7605 20.7093 14.6622 20.8004 14.5489 20.8697C14.4357 20.939 14.3097 20.985 14.1785 21.0051C14.0473 21.0252 13.9134 21.019 13.7846 20.9868C13.6558 20.9546 13.5347 20.8971 13.4283 20.8176C13.322 20.7381 13.2326 20.6382 13.1652 20.5238C13.0979 20.4094 13.054 20.2827 13.0362 20.1511C13.0183 20.0196 13.0268 19.8858 13.0612 19.7575L13.8752 16.4995H8.93725L8.00125 20.2425C7.93329 20.4958 7.76856 20.7123 7.54254 20.8453C7.31651 20.9783 7.04729 21.0171 6.79287 20.9535C6.53845 20.8899 6.3192 20.7289 6.18235 20.5052C6.04551 20.2815 6.00202 20.013 6.06125 19.7575L6.87525 16.4995H3.53125C3.26603 16.4995 3.01168 16.3942 2.82414 16.2066C2.63661 16.0191 2.53125 15.7647 2.53125 15.4995C2.53125 15.2343 2.63661 14.98 2.82414 14.7924C3.01168 14.6049 3.26603 14.4995 3.53125 14.4995H7.37525L8.62525 9.49953H5.53125C5.26603 9.49953 5.01168 9.39417 4.82414 9.20663C4.63661 9.0191 4.53125 8.76474 4.53125 8.49953C4.53125 8.23431 4.63661 7.97996 4.82414 7.79242C5.01168 7.60488 5.26603 7.49953 5.53125 7.49953H9.12525L10.0612 3.75753C10.0931 3.63005 10.1497 3.5101 10.2279 3.40452C10.306 3.29893 10.4043 3.20979 10.5169 3.14219C10.6296 3.07458 10.7544 3.02983 10.8844 3.0105C11.0143 2.99117 11.1468 2.99763 11.2743 3.02953H11.2732ZM10.6873 9.49953L9.43725 14.4995H14.3752L15.6252 9.49953H10.6873Z" fill="#FFC800"/>
</g>
<defs>
<clipPath id="clip0_1_5714">
<rect width="24" height="24" fill="white" transform="translate(0.53125)"/>
</clipPath>
</defs>
</svg>
