<svg width="64" height="64" viewBox="0 0 64 64" fill="none" xmlns="http://www.w3.org/2000/svg">
<g clip-path="url(#clip0_34_1126)">
<path d="M33.4492 14.0318C31.2558 14.0318 28.3574 15.4419 28.3574 18.967V48.5777H31.8825V18.967C31.8825 18.3403 32.2742 17.5569 33.2925 17.5569H60.3966V21.8654H41.4394C37.0526 21.8654 36.3476 24.6071 36.3476 26.9572V53.0429H28.2791V56.803H39.951V27.3488C39.951 26.2521 40.186 25.3905 41.6744 25.3905H64V14.0318H33.4492Z" fill="#479FFF"/>
<path d="M33.4492 18.1053C32.8225 18.1053 32.4309 18.5753 32.4309 19.2803V49.0477H27.9657V21.2387C27.9657 18.2619 26.3207 16.1469 22.9523 16.1469H3.60343L3.68176 11.6818H30.7858C32.1175 11.6818 32.5092 12.7001 32.5092 13.2485V13.7968C32.5092 13.7968 33.0575 13.7185 33.3709 13.7185H36.0343V13.1701C36.0343 11.2901 35.0943 9.72338 33.4492 8.78335C32.3525 8.15667 31.6475 8 31.0992 8L0 8.07834V19.5936H22.7173C23.814 19.5936 24.4406 20.377 24.4406 21.317V52.5728H35.9559V18.1053H33.4492Z" fill="#BBBCBE"/>
</g>
<defs>
<clipPath id="clip0_34_1126">
<rect width="64" height="64" fill="white"/>
</clipPath>
</defs>
</svg>
