<svg width="25" height="24" viewBox="0 0 25 24" fill="none" xmlns="http://www.w3.org/2000/svg">
<g clip-path="url(#clip0_1_5719)">
<path fill-rule="evenodd" clip-rule="evenodd" d="M7.39062 3C7.12541 3 6.87105 3.10536 6.68352 3.29289C6.49598 3.48043 6.39062 3.73478 6.39062 4V5H4.39062C3.86019 5 3.35148 5.21071 2.97641 5.58579C2.60134 5.96086 2.39063 6.46957 2.39062 7V9C2.39063 10.0609 2.81205 11.0783 3.5622 11.8284C4.31234 12.5786 5.32976 13 6.39062 13H7.19362C7.63554 13.765 8.24082 14.4231 8.96629 14.9273C9.69176 15.4315 10.5195 15.7695 11.3906 15.917V17H11.2446C10.5017 16.9999 9.77352 17.2067 9.14156 17.5973C8.5096 17.9878 7.99888 18.5466 7.66663 19.211L7.49662 19.553C7.43306 19.6709 7.39382 19.8003 7.38123 19.9336C7.36864 20.067 7.38297 20.2015 7.42335 20.3292C7.46373 20.4569 7.52935 20.5751 7.61631 20.677C7.70327 20.7788 7.80981 20.8622 7.92959 20.9221C8.04938 20.982 8.17997 21.0172 8.31363 21.0256C8.44728 21.0341 8.58127 21.0156 8.70765 20.9713C8.83404 20.927 8.95023 20.8578 9.04934 20.7677C9.14845 20.6776 9.22846 20.5686 9.28463 20.447L9.45562 20.106C9.62176 19.7735 9.87725 19.4939 10.1934 19.2986C10.5096 19.1032 10.874 18.9998 11.2456 19H13.5366C13.9081 19 14.2723 19.1035 14.5883 19.2988C14.9042 19.4942 15.1596 19.7737 15.3256 20.106L15.4956 20.447C15.5543 20.5645 15.6356 20.6694 15.7348 20.7555C15.834 20.8416 15.9492 20.9073 16.0738 20.9489C16.1985 20.9905 16.33 21.0072 16.4611 20.9979C16.5921 20.9887 16.7201 20.9537 16.8376 20.895C16.9552 20.8363 17.06 20.755 17.1461 20.6558C17.2322 20.5566 17.298 20.4414 17.3396 20.3168C17.3812 20.1922 17.3978 20.0606 17.3886 19.9295C17.3793 19.7985 17.3443 19.6705 17.2856 19.553L17.1146 19.211C16.7824 18.5466 16.2716 17.9878 15.6397 17.5973C15.0077 17.2067 14.2795 16.9999 13.5366 17H13.3906V15.917C14.2617 15.7695 15.0895 15.4315 15.815 14.9273C16.5404 14.4231 17.1457 13.765 17.5876 13H18.3906C19.4515 13 20.4689 12.5786 21.2191 11.8284C21.9692 11.0783 22.3906 10.0609 22.3906 9V7C22.3906 6.46957 22.1799 5.96086 21.8048 5.58579C21.4298 5.21071 20.9211 5 20.3906 5H18.3906V4C18.3906 3.73478 18.2853 3.48043 18.0977 3.29289C17.9102 3.10536 17.6558 3 17.3906 3H7.39062ZM8.39062 10C8.39062 11.0609 8.81205 12.0783 9.5622 12.8284C10.3123 13.5786 11.3298 14 12.3906 14C13.4515 14 14.4689 13.5786 15.2191 12.8284C15.9692 12.0783 16.3906 11.0609 16.3906 10V5H8.39062V10ZM6.39062 7H4.39062V9C4.39062 9.53043 4.60134 10.0391 4.97641 10.4142C5.35148 10.7893 5.86019 11 6.39062 11V7ZM18.3906 10V7H20.3906V9C20.3906 9.53043 20.1799 10.0391 19.8048 10.4142C19.4298 10.7893 18.9211 11 18.3906 11V10Z" fill="#00B884"/>
</g>
<defs>
<clipPath id="clip0_1_5719">
<rect width="24" height="24" fill="white" transform="translate(0.390625)"/>
</clipPath>
</defs>
</svg>
